<svg width="648" height="278" viewBox="0 0 648 278" fill="none" xmlns="http://www.w3.org/2000/svg">
<path d="M45.8717 209.762L596.73 210.04L607.202 196.762L589.381 147.923L524.433 123.755L74.5544 122.54L22.3119 168.065L45.8717 209.762Z" fill="#262626"/>
<path d="M638.126 137.329L631.778 128.78L620.298 108.675C620.298 108.675 614.348 100.428 606.871 97.0956C606.871 97.0956 550.792 81.1862 476.261 76.5693L369.596 10.0364C369.596 10.0364 351.453 1.75708 317.873 1.66674C317.873 1.66674 168.967 -0.0387406 86.8283 14.9969C84.6273 15.3925 82.6228 16.3908 81.0152 17.8921L28.27 66.6316C28.27 66.6316 13.037 74.0182 10.3757 85.1524L9.15234 107.131L3.22916 111.832L3.06956 140.137L4.70857 150.781L0.691652 154.183L2.90146 169.947C2.90146 169.947 9.05913 194.555 20.5969 204.422L24.4845 206.24L40.9551 209.797L45.8523 209.81C45.4683 206.999 45.2849 204.087 45.3019 201.076C45.5073 164.642 75.0566 135.212 111.336 135.309C147.615 135.407 176.831 164.995 176.626 201.43C176.609 204.34 176.393 207.251 175.977 210.16L445.72 210.886L466.308 210.941C465.924 208.13 465.741 205.219 465.758 202.208C465.963 165.773 495.513 136.343 531.791 136.44C568.07 136.538 597.287 166.126 597.082 202.561C597.067 205.07 596.953 207.579 596.64 209.987L624.253 204.943L639.352 168.146C640.973 164.236 641.796 160.023 641.62 155.807C641.352 150.185 640.697 142.254 638.126 137.329Z" fill="#47080B"/>
<path d="M619.491 107.926C617.605 105.605 612.738 100.053 606.854 97.4191C606.854 97.4191 550.761 81.4581 476.209 76.8262L369.516 10.0775C369.516 10.0775 351.368 1.77131 317.778 1.68068C317.778 1.68068 168.832 -0.0302948 86.6713 15.0541C84.4697 15.451 82.4647 16.4526 80.8567 17.9587L28.0973 66.8564C28.0973 66.8564 12.8602 74.2669 10.1982 85.4372L10.197 85.6386L61.581 85.7773L538.061 99.8516L619.491 107.926Z" fill="#E05200" fill-opacity="0.5"/>
<path opacity="0.15" d="M326.555 246.62C149.969 246.133 6.74753 251.603 6.70792 258.804C6.66831 266.005 149.825 272.263 326.411 272.75C502.998 273.236 646.219 267.767 646.258 260.565C646.298 253.364 503.141 247.106 326.555 246.62Z" fill="#414141"/>
<path d="M589.853 202.493C589.586 234.858 563.284 261.061 531.125 261.001C498.966 260.94 473.096 234.638 473.363 202.273C473.63 169.908 499.931 143.705 532.09 143.766C564.349 143.827 590.119 170.129 589.853 202.493Z" fill="#29222C"/>
<path d="M587.025 220.727C597.316 190.021 580.89 156.899 550.347 146.771C519.805 136.644 486.684 153.335 476.392 184.041C466.101 214.747 482.527 247.869 513.069 257.996C543.643 268.029 576.733 251.432 587.025 220.727ZM483.29 226.784C480.155 220.463 478.315 213.727 477.801 206.796C477.289 199.549 478.132 192.329 480.458 185.389C482.784 178.45 486.37 172.139 491.247 166.679C495.839 161.442 501.375 157.151 507.696 153.965C514.017 150.78 520.744 148.891 527.656 148.331C534.883 147.77 542.075 148.57 548.977 150.859C555.88 153.148 562.148 156.705 567.559 161.563C572.75 166.136 576.992 171.662 580.127 177.983C583.262 184.304 585.101 191.041 585.615 197.972C586.128 205.219 585.284 212.439 582.959 219.378C580.633 226.318 577.047 232.629 572.17 238.089C567.546 243.421 562.042 247.617 555.721 250.802C549.4 253.988 542.673 255.877 535.761 256.437C528.534 256.998 521.342 256.197 514.439 253.909C507.537 251.62 501.269 248.063 495.858 243.205C490.666 238.631 486.457 233.01 483.29 226.784Z" fill="#3F3643"/>
<path d="M532.085 156.592C506.995 156.545 486.514 177.048 486.307 202.198C486.099 227.449 506.342 247.928 531.332 247.975C556.422 248.023 576.902 227.52 577.109 202.37C577.317 177.219 557.075 156.639 532.085 156.592ZM571.234 202.459C571.19 207.869 570.151 213.078 568.02 217.984C565.99 222.69 563.067 226.993 559.453 230.593C555.839 234.194 551.534 237.091 546.838 239.087C541.942 241.182 536.756 242.174 531.38 242.164C526.004 242.153 520.834 241.142 515.973 239.028C511.31 237.015 507.053 234.101 503.498 230.487C499.944 226.873 497.092 222.559 495.139 217.846C493.089 212.932 492.136 207.72 492.181 202.309C492.225 196.898 493.264 191.69 495.395 186.784C497.425 182.078 500.348 177.775 503.962 174.175C507.576 170.574 511.881 167.677 516.577 165.681C521.473 163.586 526.659 162.594 532.035 162.604C537.412 162.614 542.581 163.626 547.442 165.74C552.105 167.753 556.362 170.666 559.917 174.28C563.471 177.894 566.323 182.209 568.276 186.922C570.227 191.835 571.279 197.048 571.234 202.459Z" fill="#3F3643"/>
<path d="M542.944 159.974C561.217 161.24 571.054 181.153 564.856 204.492C558.658 227.832 538.745 245.859 520.472 244.593C502.2 243.327 492.362 223.414 498.561 200.075C504.759 176.735 524.643 158.814 542.944 159.974Z" fill="#D0D1D2"/>
<path d="M540.935 167.541C555.977 168.494 564.017 184.933 558.923 204.116C553.828 223.299 537.496 238.086 522.482 237.026C507.44 236.073 499.4 219.634 504.494 200.451C509.588 181.267 525.893 166.588 540.935 167.541Z" fill="#29222C"/>
<path d="M540.786 169.079L534.385 168.465L532.311 180.496C530.957 180.576 529.568 180.861 528.256 181.257L524.586 170.347L518.429 173.311L522.099 184.221C520.904 185.047 519.785 185.985 518.743 187.035L510.28 180.055L506.033 185.815L514.496 192.795C513.795 194.087 513.17 195.49 512.734 196.912L501.719 195.855L500.514 202.848L511.529 203.905C511.469 205.363 511.597 206.838 511.838 208.22L501.301 213.273L503.456 219.647L513.993 214.595C514.645 215.807 515.409 216.926 516.285 217.951L509.035 227.813L513.987 231.843L521.237 221.98C522.373 222.612 523.62 223.15 524.902 223.482L522.828 235.513L529.23 236.128L531.304 224.096C532.657 224.017 534.046 223.732 535.359 223.335L539.029 234.245L545.186 231.282L541.516 220.372C542.711 219.545 543.83 218.607 544.872 217.557L553.335 224.537L557.582 218.777L549.119 211.797C549.82 210.506 550.445 209.102 550.881 207.68L561.896 208.737L563.101 201.744L552.086 200.688C552.146 199.23 552.018 197.754 551.777 196.372L562.314 191.32L560.159 184.945L549.622 189.998C548.97 188.785 548.206 187.666 547.329 186.642L554.58 176.779L549.628 172.75L542.378 182.612C541.242 181.981 539.995 181.443 538.713 181.111L540.786 169.079Z" fill="#A5A8AB"/>
<path d="M534.521 191.726C539.119 192.017 541.607 197.053 540.049 202.916C538.491 208.78 533.453 213.339 528.883 212.941C524.284 212.65 521.796 207.614 523.354 201.75C524.996 195.892 529.95 191.328 534.521 191.726Z" fill="#29222C"/>
<path d="M531.517 218.224C522.888 218.212 515.932 211.084 516.037 202.362C516.141 193.64 523.269 186.532 531.898 186.544C540.527 186.556 547.484 193.683 547.379 202.405C547.274 211.127 540.146 218.236 531.517 218.224ZM531.879 188.148C524.142 188.137 517.818 194.445 517.724 202.264C517.63 210.084 523.803 216.409 531.539 216.419C539.275 216.43 545.6 210.122 545.694 202.303C545.787 194.583 539.615 188.158 531.879 188.148Z" fill="#D0D1D2"/>
<path d="M537.383 202.288C537.302 205.498 534.692 208.104 531.561 208.102C528.43 208.099 525.951 205.489 526.032 202.279C526.113 199.069 528.723 196.463 531.855 196.466C534.984 196.569 537.462 199.179 537.383 202.288Z" fill="#CACCCE"/>
<path d="M531.879 181.542C520.529 181.521 511.193 190.822 511.099 202.245C511.005 213.668 520.187 223.004 531.538 223.025C542.888 223.047 552.224 213.746 552.318 202.323C552.412 190.9 543.229 181.564 531.879 181.542ZM549.629 202.418C549.609 204.823 549.092 207.227 548.177 209.429C547.264 211.532 545.953 213.533 544.247 215.133C542.541 216.834 540.638 218.133 538.54 219.03C536.342 219.928 533.949 220.425 531.559 220.42C529.17 220.416 526.784 219.91 524.601 219.004C522.518 218.098 520.537 216.792 518.958 215.086C517.28 213.379 516.001 211.473 515.122 209.367C514.244 207.161 513.766 204.755 513.786 202.35C513.806 199.945 514.324 197.541 515.238 195.339C516.152 193.136 517.462 191.235 519.168 189.635C520.874 187.934 522.777 186.635 524.875 185.737C527.073 184.84 529.467 184.343 531.856 184.348C534.246 184.352 536.631 184.858 538.814 185.764C540.997 186.67 542.878 187.976 544.457 189.682C546.136 191.389 547.414 193.295 548.293 195.401C549.172 197.507 549.65 199.913 549.629 202.418Z" fill="#D0D1D2"/>
<path d="M532.012 165.41C511.801 165.372 495.137 181.873 494.969 202.314C494.801 222.655 511.092 239.319 531.403 239.358C551.615 239.396 568.279 222.894 568.447 202.453C568.615 182.012 552.224 165.448 532.012 165.41ZM563.668 202.444C563.632 206.753 562.801 210.96 561.076 214.965C559.451 218.769 557.132 222.272 554.122 225.172C551.11 228.172 547.706 230.471 543.909 232.067C539.913 233.763 535.724 234.556 531.443 234.548C527.162 234.54 522.987 233.731 519.018 232.02C515.248 230.409 511.782 228.098 508.92 225.087C505.958 222.075 503.696 218.664 502.134 214.853C500.474 210.842 499.713 206.632 499.748 202.323C499.784 198.015 500.615 193.808 502.34 189.803C503.965 185.998 506.283 182.496 509.294 179.596C512.306 176.595 515.71 174.297 519.507 172.701C523.503 171.005 527.692 170.211 531.973 170.219C536.254 170.227 540.429 171.037 544.398 172.748C548.168 174.358 551.634 176.669 554.496 179.681C557.458 182.693 559.72 186.104 561.282 189.914C562.843 193.825 563.704 198.035 563.668 202.444Z" fill="#D0D1D2"/>
<path d="M169.156 200.855C168.889 233.219 142.587 259.423 110.428 259.362C78.2692 259.301 52.3997 232.999 52.6662 200.634C52.9327 168.27 79.2346 142.066 111.394 142.127C143.652 142.188 169.422 168.49 169.156 200.855Z" fill="#29222C"/>
<path d="M111.494 142.128C79.3347 142.067 53.0328 168.27 52.7663 200.635C52.4998 233 78.3693 259.302 110.528 259.362C142.687 259.423 168.989 233.22 169.256 200.855C169.423 168.49 143.653 142.188 111.494 142.128ZM148.828 239.194C143.808 244.195 138.002 248.091 131.607 250.785C124.913 253.578 117.832 255.068 110.564 255.054C103.296 255.04 96.2382 253.624 89.5914 250.705C83.2416 247.988 77.4991 244.069 72.5622 239.05C67.6252 234.03 63.7901 228.211 61.1547 221.793C58.4222 215.075 56.9873 207.958 57.0476 200.643C57.1078 193.328 58.5603 186.217 61.5029 179.509C64.2439 173.101 68.1748 167.297 73.1942 162.296C78.2137 157.295 84.0205 153.399 90.4149 150.705C97.1087 147.912 104.19 146.423 111.458 146.436C118.726 146.45 125.784 147.866 132.431 150.785C138.781 153.502 144.523 157.421 149.46 162.44C154.397 167.46 158.232 173.279 160.867 179.697C163.6 186.415 165.035 193.532 164.975 200.847C164.914 208.162 163.462 215.273 160.519 221.981C157.778 228.389 153.847 234.193 148.828 239.194Z" fill="#3F3643"/>
<path d="M111.388 154.953C86.2978 154.906 65.8177 175.409 65.6106 200.559C65.4026 225.81 85.6449 246.289 110.635 246.336C135.725 246.384 156.206 225.881 156.413 200.731C156.62 175.58 136.378 155.001 111.388 154.953ZM150.538 200.82C150.493 206.231 149.355 211.439 147.323 216.345C145.293 221.051 142.37 225.354 138.756 228.954C135.043 232.555 130.837 235.453 126.141 237.448C121.245 239.543 116.06 240.535 110.683 240.525C105.307 240.515 100.138 239.503 95.2764 237.389C90.6134 235.377 86.3561 232.463 82.8015 228.849C79.2469 225.235 76.3951 220.921 74.4426 216.207C72.3922 211.294 71.4394 206.081 71.484 200.67C71.5285 195.26 72.5671 190.051 74.6984 185.145C76.7284 180.44 79.6512 176.136 83.2652 172.536C86.8792 168.935 91.1844 166.038 95.8804 164.043C100.776 161.948 105.962 160.955 111.338 160.965C116.715 160.976 121.884 161.987 126.745 164.101C131.408 166.114 135.665 169.028 139.22 172.642C142.775 176.256 145.626 180.57 147.579 185.283C149.53 190.197 150.582 195.409 150.538 200.82Z" fill="#3F3643"/>
<path d="M149.428 200.671C148.539 222.642 130.67 240.487 109.477 240.473C88.2847 240.458 71.7038 222.589 72.5931 200.619C73.4823 178.648 91.3515 160.803 112.544 160.817C133.737 160.832 150.221 178.701 149.428 200.671Z" fill="#D0D1D2"/>
<path d="M142.558 200.667C141.907 218.725 127.153 233.362 109.735 233.35C92.3163 233.338 78.7162 218.681 79.4643 200.623C80.1157 182.565 94.8692 167.928 112.288 167.94C129.706 167.952 143.21 182.609 142.558 200.667Z" fill="#29222C"/>
<path d="M143.304 204.198L143.386 197.381L131.781 197.365C131.599 195.961 131.22 194.557 130.739 193.253L140.827 187.452L137.526 181.532L127.438 187.333C126.559 186.229 125.579 185.225 124.499 184.322L130.472 174.204L124.661 170.787L118.688 180.905C117.404 180.402 116.021 179.999 114.634 179.797L114.775 168.067L108.031 168.058L107.89 179.787C106.499 179.986 105.105 180.385 103.81 180.885L98.179 170.751L92.2861 174.152L97.9172 184.285C96.8153 185.186 95.8114 186.187 94.9055 187.289L84.9589 181.36L81.5155 187.271L91.4633 193.099C90.9517 194.402 90.5381 195.805 90.3228 197.208L78.7182 197.192L78.6362 204.009L90.2409 204.025C90.4224 205.429 90.8023 206.833 91.2825 208.137L81.1949 213.938L84.4961 219.858L94.5837 214.057C95.4631 215.161 96.4429 216.164 97.5231 217.068L91.5495 227.186L97.3604 230.602L103.334 220.485C104.617 220.988 106.001 221.391 107.387 221.593L107.246 233.323L113.991 233.332L114.132 221.602C115.523 221.404 116.916 221.005 118.212 220.505L123.843 230.639L129.736 227.238L124.105 217.105C125.207 216.204 126.21 215.203 127.116 214.101L137.064 219.929L140.508 214.019L130.56 208.191C131.071 206.888 131.485 205.485 131.7 204.082L143.305 204.098L143.304 204.198Z" fill="#A5A8AB"/>
<path d="M120.588 200.651C120.389 206.169 115.872 210.68 110.551 210.677C105.229 210.673 101.038 206.156 101.334 200.638C101.533 195.121 106.049 190.609 111.371 190.613C116.689 190.717 120.884 195.134 120.588 200.651Z" fill="#29222C"/>
<path d="M110.821 216.585C102.192 216.573 95.235 209.446 95.3399 200.724C95.4447 192.002 102.572 184.893 111.201 184.905C119.83 184.917 126.787 192.044 126.682 200.766C126.577 209.488 119.45 216.597 110.821 216.585ZM111.182 186.509C103.446 186.498 97.1212 192.806 97.0272 200.626C96.9332 208.445 103.106 214.77 110.842 214.78C118.579 214.791 124.903 208.484 124.997 200.664C125.09 192.944 118.918 186.52 111.182 186.509Z" fill="#D0D1D2"/>
<path d="M116.687 200.65C116.606 203.859 113.996 206.465 110.864 206.463C107.733 206.46 105.254 203.85 105.335 200.64C105.417 197.43 108.027 194.824 111.158 194.827C114.287 194.93 116.765 197.54 116.687 200.65Z" fill="#CACCCE"/>
<path d="M111.182 179.903C99.8317 179.882 90.4955 189.183 90.4015 200.606C90.3074 212.029 99.4901 221.365 110.84 221.386C122.191 221.408 131.527 212.107 131.621 200.684C131.715 189.261 122.532 179.925 111.182 179.903ZM128.932 200.779C128.912 203.184 128.394 205.588 127.48 207.79C126.567 209.893 125.256 211.894 123.55 213.494C121.844 215.195 119.941 216.494 117.843 217.392C115.645 218.289 113.251 218.786 110.862 218.781C108.472 218.777 106.087 218.271 103.904 217.365C101.721 216.459 99.8399 215.153 98.2609 213.447C96.5824 211.74 95.3037 209.834 94.425 207.728C93.5471 205.522 93.0691 203.116 93.0889 200.711C93.1087 198.306 93.6263 195.903 94.5405 193.7C95.4547 191.497 96.7647 189.596 98.4705 187.996C100.177 186.295 102.08 184.996 104.178 184.099C106.376 183.201 108.769 182.704 111.159 182.709C113.548 182.713 115.934 183.219 118.117 184.125C120.3 185.031 122.181 186.337 123.76 188.043C125.438 189.75 126.717 191.656 127.596 193.762C128.574 195.868 128.952 198.274 128.932 200.779Z" fill="#D0D1D2"/>
<path d="M111.316 163.771C91.1042 163.733 74.4405 180.235 74.2722 200.675C74.1047 221.016 90.3957 237.681 110.707 237.719C130.918 237.757 147.582 221.255 147.75 200.814C147.919 180.373 131.527 163.809 111.316 163.771ZM142.971 200.805C142.936 205.114 142.005 209.321 140.379 213.326C138.755 217.13 136.436 220.633 133.425 223.533C130.513 226.534 127.009 228.832 123.212 230.428C119.216 232.124 115.028 232.917 110.746 232.909C106.465 232.901 102.29 232.092 98.3215 230.381C94.5513 228.77 91.0855 226.459 88.2229 223.448C85.2608 220.436 82.9989 217.025 81.4372 213.214C79.7776 209.203 79.0158 204.993 79.0512 200.685C79.0867 196.376 79.9179 192.169 81.6435 188.164C83.2679 184.36 85.5867 180.857 88.5975 177.957C91.6092 174.956 95.0133 172.658 98.81 171.062C102.807 169.366 106.995 168.572 111.276 168.58C115.557 168.589 119.732 169.398 123.701 171.109C127.471 172.719 130.937 175.031 133.799 178.042C136.762 181.054 139.024 184.465 140.585 188.275C142.146 192.186 143.007 196.396 142.971 200.805Z" fill="#D0D1D2"/>
<path d="M532.056 126.318C572.018 126.425 604.511 157.583 607.187 196.879C607.297 195.075 607.407 193.171 607.418 191.267C607.655 149.272 573.979 115.205 532.119 115.093C490.259 114.98 456.2 148.865 455.963 190.859C455.952 192.764 456.042 194.568 456.131 196.473C459.151 157.092 492.094 126.21 532.056 126.318Z" fill="#E05200" fill-opacity="0.5"/>
<path d="M111.359 124.679C151.321 124.786 183.814 155.944 186.49 195.24C186.6 193.436 186.711 191.532 186.721 189.628C186.958 147.634 153.283 113.566 111.423 113.454C69.5625 113.341 35.503 147.227 35.266 189.221C35.2552 191.125 35.3449 192.929 35.4341 194.834C38.4538 155.453 71.3973 124.572 111.359 124.679Z" fill="#E05200" fill-opacity="0.5"/>
<path d="M176.026 190.998C176.5 194.396 176.773 197.795 176.746 201.295C176.723 204.281 176.5 207.267 176.077 210.252L445.903 210.789L466.498 210.83C466.12 207.947 465.944 204.961 465.968 201.872C465.995 198.371 466.321 194.974 466.847 191.577L176.026 190.998Z" fill="#47080B"/>
<path d="M10.8276 190.354C13.481 195.478 16.7339 200.503 20.599 203.823L24.4762 205.637L40.9124 209.182L45.8017 209.192C45.425 206.381 45.2486 203.469 45.2726 200.458C45.2997 197.046 45.6255 193.734 46.1507 190.423L10.8276 190.354Z" fill="#47080B"/>
<path d="M596.718 192.637C597.19 195.95 597.463 199.263 597.436 202.675C597.416 205.184 597.296 207.693 596.978 210.102L624.559 205.036L629.646 192.701L596.718 192.637Z" fill="#47080B"/>
<path d="M317.734 1.81244C317.734 1.81244 168.986 0.10179 86.8255 15.1882C84.5239 15.5848 82.3183 16.6867 80.6098 18.2935L36.695 58.7616L476.166 76.867L369.472 10.1097C369.471 10.2104 351.423 1.90336 317.734 1.81244Z" fill="#47080B"/>
<path d="M10.1995 85.0483L8.9775 106.808L7.67281 107.807C18.4653 107.736 31.3597 107.069 31.3597 107.069C49.1543 105.712 60.6375 89.4964 60.6375 89.4964C62.9499 86.9954 61.5611 85.1864 61.5611 85.1864L10.1995 85.0483Z" fill="#A41E23"/>
<path d="M514.899 99.9611L438.144 95.3166C436.645 95.2117 435.933 97.2267 437.128 98.1375C442.604 102.186 447.395 103.611 447.395 103.611L491.666 106.756C501.861 107.288 510.576 104.286 515.286 102.181C516.389 101.679 516.098 100.065 514.899 99.9611Z" fill="#47080B"/>
<path d="M257.878 58.5984L248.636 13.5813C248.636 13.5813 324.904 12.6819 349.086 13.8517C349.086 13.8517 383.908 24.5909 441.833 68.333L257.878 58.5984Z" fill="#322A36"/>
<mask id="mask0_91_2062" style="mask-type:luminance" maskUnits="userSpaceOnUse" x="249" y="13" width="193" height="56">
<path d="M257.956 58.8504L249.283 13.5844C249.283 13.5844 325.307 12.5516 349.394 13.6877C349.394 13.6877 383.972 24.4315 441.181 68.3332L257.956 58.8504Z" fill="white"/>
</mask>
<g mask="url(#mask0_91_2062)">
<path opacity="0.25" d="M365.313 -29.7582L298.263 111.232L356.16 111.292L423.21 -29.6985L365.313 -29.7582Z" fill="white"/>
<path opacity="0.25" d="M273.668 -30.1138L207.063 110.768L227.506 110.789L294.111 -30.0926L273.668 -30.1138Z" fill="white"/>
<path opacity="0.25" d="M452.765 -29.4168L385.962 111.504L420.004 111.539L486.709 -29.3817L452.765 -29.4168Z" fill="white"/>
<path opacity="0.25" d="M316.735 -29.9452L250.363 110.915L263.541 110.929L330.011 -29.9314L316.735 -29.9452Z" fill="white"/>
<path opacity="0.25" d="M335.134 -29.8732L268.863 110.974L277.343 110.982L343.711 -29.8643L335.134 -29.8732Z" fill="white"/>
</g>
<path d="M240.742 13.6516L243.989 58.1622L76.7931 53.3925L109.851 22.742C109.851 22.742 194.959 14.332 240.742 13.6516Z" fill="#322A36"/>
<mask id="mask1_91_2062" style="mask-type:luminance" maskUnits="userSpaceOnUse" x="76" y="13" width="168" height="46">
<path d="M240.753 13.3793L243.459 58.1622L76.8444 53.6436L110.164 22.7464C110.164 22.7464 195.105 14.1409 240.753 13.3793Z" fill="white"/>
</mask>
<g mask="url(#mask1_91_2062)">
<path opacity="0.25" d="M189.744 -12.5423L122.694 128.448L180.592 128.508L247.642 -12.4825L189.744 -12.5423Z" fill="white"/>
<path opacity="0.25" d="M98.1009 -12.8977L31.4949 127.984L52.0362 128.005L118.642 -12.8764L98.1009 -12.8977Z" fill="white"/>
<path opacity="0.25" d="M277.297 -12.2003L210.494 128.721L244.438 128.756L311.241 -12.1652L277.297 -12.2003Z" fill="white"/>
<path opacity="0.25" d="M141.264 -12.729L74.7946 128.131L87.9728 128.145L154.442 -12.7153L141.264 -12.729Z" fill="white"/>
<path opacity="0.25" d="M159.662 -12.657L93.2942 128.19L101.774 128.198L168.142 -12.6482L159.662 -12.657Z" fill="white"/>
</g>
<path d="M442.905 66.621C412.928 43.9089 389.27 30.2709 374.649 22.792C358.736 14.6059 350.069 11.9715 349.67 11.8701L349.471 11.769L349.171 11.7684C341.983 11.4527 329.6 11.2278 312.322 11.1949C282.86 11.1389 248.998 11.578 248.699 11.5774L246.202 11.5727L246.682 13.9901L255.801 59.1163L256.088 60.6272L257.685 60.7309L441.576 70.344L448.265 70.6588L442.905 66.621ZM257.901 58.7175L248.782 13.5913C248.782 13.5913 282.643 13.1523 312.406 13.2089C327.287 13.2372 341.168 13.3643 349.155 13.7822C349.155 13.7822 383.923 24.5214 441.692 68.3304L257.901 58.7175Z" fill="#262626"/>
<path d="M242.737 13.4293L242.552 11.5153L240.655 11.5117C195.404 12.1307 110.536 20.6311 109.636 20.7301L108.936 20.8295L108.433 21.3322L75.4216 51.9888L71.698 55.4062L76.6912 55.5164L243.752 60.2658L246.048 60.3708L245.868 58.0539L242.737 13.4293ZM76.8075 53.5022L109.92 22.7451C109.92 22.7451 194.988 14.1443 240.738 13.5262L243.869 58.1509L76.8075 53.5022Z" fill="#262626"/>
<path d="M119.352 10.3102C119.352 10.3102 93.1851 7.43082 65.0711 13.1739L63.0555 16.1781C63.0555 16.1781 67.5417 18.0963 88.6562 30.7937L119.352 10.3102Z" fill="#47080B"/>
<path d="M631.969 129.07L620.55 108.921C620.55 108.921 620.254 108.518 619.661 107.812L538.338 99.8085C538.338 99.8085 542.286 105.452 553.524 111.109L571.765 115.269C571.765 115.269 580.625 118.607 584.192 122.035L632.561 129.977L631.969 129.07Z" fill="#EAE6C6"/>
<path d="M619.523 116.618C620.782 120.425 620.355 124.028 618.664 124.625C616.872 125.223 614.413 122.615 613.155 118.708C611.896 114.901 612.323 111.298 614.014 110.701C615.806 110.103 618.264 112.811 619.523 116.618Z" fill="#D8D6AF"/>
<path d="M610.03 115.181C611.192 118.788 610.867 122.091 609.175 122.688C607.582 123.286 605.32 120.779 604.059 117.272C602.897 113.666 603.222 110.363 604.914 109.765C606.606 109.168 608.869 111.575 610.03 115.181Z" fill="#D8D6AF"/>
<path d="M600.937 113.846C602.001 117.152 601.678 120.255 600.185 120.753C598.693 121.251 596.627 119.044 595.463 115.738C594.398 112.432 594.722 109.329 596.214 108.832C597.806 108.334 599.872 110.54 600.937 113.846Z" fill="#D8D6AF"/>
<path d="M592.141 112.913C593.207 116.018 592.886 118.921 591.393 119.419C590 119.917 588.032 117.81 586.967 114.605C585.9 111.499 586.222 108.596 587.715 108.099C589.108 107.601 591.174 109.807 592.141 112.913Z" fill="#D8D6AF"/>
<path d="M575.697 103.495L538.304 99.8085C538.304 99.8085 542.25 105.44 553.48 111.085L571.708 115.237C571.708 115.237 580.563 118.568 584.127 121.989L584.925 122.091L575.697 103.495Z" fill="#F69220"/>
<path d="M631.969 129.07L620.55 108.921C620.55 108.921 620.254 108.518 619.661 107.812L538.338 99.8085C538.338 99.8085 542.286 105.452 553.524 111.109L571.765 115.269C571.765 115.269 580.625 118.607 584.192 122.035L632.561 129.977L631.969 129.07ZM584.901 120.829C581.036 117.3 572.773 114.164 572.374 114.063L572.274 114.063L572.174 114.062L554.033 109.902C547.868 106.77 543.999 103.643 541.818 101.627L618.95 109.22C619.147 109.522 619.246 109.623 619.345 109.724L629.779 128.261L584.901 120.829Z" fill="#414141"/>
<path opacity="0.3" d="M620.539 108.945C620.539 108.945 620.243 108.541 619.649 107.834L538.293 99.8083C538.293 99.8083 539.379 101.425 542.157 103.751L626.546 119.653L620.539 108.945Z" fill="white"/>
<path opacity="0.21" d="M272.743 94.2293L273.117 85.1865C273.128 83.7797 274.235 82.6765 275.532 82.7794L306.468 83.7423C307.766 83.7447 308.754 84.9524 308.643 86.359L308.269 95.4019C308.257 96.8086 307.15 97.9119 305.853 97.8089L274.917 96.846C273.62 96.7431 272.631 95.6359 272.743 94.2293Z" fill="#414141"/>
<path d="M275.141 91.1437L306.098 92.1093C307.397 92.1118 308.504 91.1061 308.516 89.6952L308.643 86.3698C308.654 84.9589 307.665 83.8485 306.467 83.7454L275.509 82.7798C274.211 82.7773 273.104 83.783 273.092 85.1939L272.965 88.5193C272.853 90.0308 273.843 91.1412 275.141 91.1437Z" fill="#545454"/>
<path d="M9.86587 90.6475L8.97568 106.865L7.67229 107.863C10.1679 107.87 12.8638 107.777 15.4598 107.684C21.5797 102.293 24.1121 95.7921 25.1392 90.6885L9.86587 90.6475Z" fill="#EAE6C6"/>
<path d="M61.5611 85.1864L10.1995 85.0483L8.9775 106.808L7.67281 107.807C18.4653 107.736 31.3597 107.069 31.3597 107.069C49.1543 105.712 60.6375 89.4964 60.6375 89.4964C62.9499 86.9954 61.5611 85.1864 61.5611 85.1864ZM59.6433 88.5911L59.5428 88.6911C59.4418 88.8914 48.2623 104.406 31.2671 105.765C30.7675 105.763 20.172 106.337 10.3782 106.511L11.4906 86.4558L60.554 86.5878C60.6511 87.0895 60.4478 87.6907 59.6433 88.5911Z" fill="#414141"/>
<path d="M176.119 155.298L450.231 166.134L450.191 173.266L183.022 172.537L176.119 155.298Z" fill="#E05200" fill-opacity="0.5"/>
<path opacity="0.4" d="M449.891 75.4394L447.193 75.6325L450.369 114.721L449.973 184.764L292.539 184.341C290.949 182.833 283.995 175.901 276.39 160.448C268.49 144.194 258.267 114.806 254.539 67.399L251.841 67.5921C255.565 115.601 265.987 145.289 274.085 161.845C282.874 179.906 290.829 186.441 291.127 186.742L291.524 187.044L452.755 187.477L453.166 114.629L449.891 75.4394Z" fill="#8F9495"/>
<path d="M607.283 147.781C608.937 155.192 611.947 169.612 612.679 181.424C612.773 182.325 613.567 183.128 614.464 183.13L623.242 183.154C624.339 183.157 625.338 182.759 626.141 181.961C629.151 178.866 635.986 169.477 633.911 148.353C633.911 148.353 633.133 144.748 630.544 144.041L611.1 143.088C608.707 142.881 606.698 145.278 607.283 147.781Z" fill="#47080B"/>
<path d="M441.886 68.333C428.758 58.4805 416.918 50.3344 406.27 43.4938L408.037 66.5391L441.886 68.333Z" fill="#47080B"/>
<g opacity="0.2">
<path d="M597.274 202.708C597.253 205.215 597.133 207.722 596.814 210.127L624.367 205.066L639.52 168.296C641.147 164.389 641.979 160.179 641.814 155.968C641.658 150.653 641.02 143.333 638.867 138.415L546.466 138.24C575.718 144.813 597.532 171.124 597.274 202.708Z" fill="#8F9495"/>
<path d="M517.758 137.35L125.676 136.6C155.099 143.226 176.866 169.748 176.607 201.584C176.583 204.515 176.36 207.446 175.936 210.376L445.618 210.892L466.201 210.931C465.824 208.1 465.648 205.169 465.673 202.137C466.031 170.301 488.229 143.863 517.758 137.35Z" fill="#8F9495"/>
<path d="M2.99562 169.407C2.99562 169.407 9.07426 193.983 20.5561 203.831L24.4286 205.643L40.8462 209.184L45.7302 209.193C45.3544 206.385 45.1789 203.477 45.2034 200.469C45.4608 168.986 67.7044 142.659 97.0618 136.197L3.26858 136.019L3.23989 139.528L4.84664 150.26L0.83181 153.661L2.99562 169.407Z" fill="#8F9495"/>
</g>
<g opacity="0.4">
<path d="M349.152 13.7738C341.065 13.3556 327.283 13.2287 312.401 13.2004C282.638 13.1438 248.775 13.5829 248.775 13.5829L257.895 58.7182L441.693 68.3331C383.922 24.5152 349.152 13.7738 349.152 13.7738ZM250.66 15.1978C258.351 15.1118 287.018 14.8642 312.287 14.9122C329.366 14.9447 341.649 15.1695 348.738 15.4851C350.033 15.8904 358.599 18.8273 373.021 26.2065C386.746 33.2823 408.716 45.9128 436.314 66.5101L259.005 57.3104L250.66 15.1978Z" fill="#8F9495"/>
<path d="M109.919 22.7433L76.8048 53.5111L243.875 58.2622L240.744 13.6221C194.991 14.2403 109.919 22.7433 109.919 22.7433ZM80.8125 52.0074L110.605 24.3567C117.902 23.6653 195.676 15.9545 239.232 15.2313L242.191 56.5462L80.8125 52.0074Z" fill="#8F9495"/>
</g>
<path d="M397.814 56.8939L397.944 41.0657C397.944 41.0657 398.164 38.4614 402.841 38.4703C402.841 38.4703 412.982 39.6916 416.326 44.4064C416.326 44.4064 421.035 52.6301 422.15 62.2495C422.15 62.2495 420.923 66.2544 418.039 66.0486C418.039 66.0486 407.794 65.4281 403.136 63.1152C403.037 63.115 397.787 60.0997 397.814 56.8939Z" fill="#47080B"/>
<path d="M402.758 38.5773C402.36 38.5766 401.863 38.5756 401.564 38.6752C404.419 42.186 412.482 53.0178 414.664 65.8415C416.551 66.0454 417.942 66.1482 417.942 66.1482C420.725 66.3537 422.05 62.3501 422.05 62.3501C420.935 52.8335 416.231 44.5118 416.231 44.5118C412.89 39.6982 402.758 38.5773 402.758 38.5773Z" fill="#E05200" fill-opacity="0.5"/>
</svg>
