<svg width="60" height="60" viewBox="0 0 87 87" fill="none" xmlns="http://www.w3.org/2000/svg">
<path d="M31.3535 84.4649L28.883 74.2972L4.88405 69.6593C2.70768 68.4106 -0.339244 65.3068 4.88405 62.8808H20.0599M20.0599 62.8808C19.8246 64.189 21.2598 66.5911 28.883 65.7349L31.3535 68.2322M20.0599 62.8808C20.2951 61.8106 21.2245 59.7413 23.0597 60.0267H33.471C34.7063 60.5024 37.1414 62.1316 37.0003 64.843L43 85" stroke="white" stroke-width="3" stroke-linecap="round" stroke-linejoin="round"/>
<path d="M54.9306 84.4649L57.4613 74.2972L82.0456 69.6593C84.2751 68.4106 87.3963 65.3068 82.0456 62.8808H66.4997M66.4997 62.8808C66.7407 64.189 65.2705 66.5911 57.4613 65.7349L54.9306 68.2322M66.4997 62.8808C66.2586 61.8106 65.3066 59.7413 63.4266 60.0267H52.7614C51.496 60.5024 49.0015 62.1316 49.1461 64.843L43 85" stroke="white" stroke-width="3" stroke-linecap="round" stroke-linejoin="round"/>
<path d="M39.0818 12.1648V5.44173C39.5543 4.08531 39.3299 1.51401 34.6515 2.08016H18.7024M39.0818 40.6497V49.6728C40.2159 52.7867 37.6641 54.2728 36.2464 54.6267H6.65196C2.39887 56.0421 1.80816 53.0933 2.04444 51.442V5.44173C2.18621 2.18631 3.52121 1.84426 4.17099 2.08016H10.3734M47.588 21.3649V4.73403C47.7061 3.67248 48.6513 1.65554 51.4867 2.08016H56.0942M47.588 50.2036C46.8791 53.6005 48.5922 54.5677 49.5373 54.6267H81.2583C83.6684 55.4759 84.7435 53.4472 84.9798 52.3267V6.32635C85.2633 2.78787 82.4988 2.02119 81.0811 2.08016H64.6004M10.3734 2.08016V14.8187H18.7024V2.08016M10.3734 2.08016H18.7024M56.0942 2.08016V14.8187H64.6004V2.08016M56.0942 2.08016H64.6004M34.6515 29.6804H19.9429C18.9387 29.9163 17.0721 29.3265 17.6391 25.0803C17.521 23.3701 17.8164 20.0203 19.9429 20.3034H34.6515C34.5333 17.8854 35.254 14.2526 39.0818 19.0649L43.8665 25.0803L39.0818 31.0958C37.4278 33.5727 34.2261 36.7573 34.6515 29.6804ZM65.4864 40.6497C66.786 40.7676 69.3142 40.0127 69.0307 36.0496C69.2669 34.4573 68.8889 31.3788 65.4864 31.8035H52.0183C52.1955 29.7393 51.5575 26.5311 47.588 30.2111L42.8033 36.0496L47.588 42.7728C49.0648 45.0138 51.912 47.7266 51.4867 40.6497H65.4864Z" stroke="white" stroke-width="3" stroke-linecap="round" stroke-linejoin="round"/>
</svg>
