<svg width="60" height="60" viewBox="0 0 102 102" fill="none" xmlns="http://www.w3.org/2000/svg">
<path d="M56.5077 11.7652L56.7087 19.1761M56.5077 11.7652H52.889M56.5077 11.7652H58.4175V1.92261M56.5077 11.7652H65.5544M56.7087 19.1761C58.4719 19.004 61.7251 19.0566 65.5544 19.5962M56.7087 19.1761C52.0799 19.7361 45.6052 21.6777 39.5345 25.6593M82.8355 93.033C77.3375 98.4443 63.2839 100.081 56.7087 100.216C37.933 97.0947 28.8524 85.8466 24.9679 75.1194M82.8355 93.033C83.053 92.819 83.2571 92.599 83.4468 92.373L82.8355 93.033ZM82.8355 25.6593L86.6634 20.9538M82.8355 25.6593C85.0903 27.2008 87.1381 29.3076 88.9753 30.8876M82.8355 25.6593C77.6779 22.1333 71.0278 20.3674 65.5544 19.5962M88.9753 87.2492C93.3982 84.7396 96.9834 76.8559 98.6252 72.1504C102.175 51.6267 98.6252 40.8215 88.9753 30.8876M86.6634 20.9538L83.7483 18.235L87.367 14.2615L98.6252 24.4045L95.2075 28.0643L92.3176 25.6593M86.6634 20.9538L92.3176 25.6593M88.9753 30.8876L92.3176 25.6593M65.5544 19.5962V11.7652M65.5544 11.7652H63.2424V1.92261M65.5544 11.7652C66.6334 11.8721 67.9501 11.8579 69.2736 11.7652M52.889 1.92261H47.2599C47.2599 1.92261 46.0814 9.64721 47.2599 10.7062C48.4384 11.7652 52.889 11.7652 52.889 11.7652M52.889 1.92261V11.7652M52.889 1.92261H58.4175M58.4175 1.92261H63.2424M63.2424 1.92261H69.2736M69.2736 1.92261H75.3047V6.62812C75.3047 11.7652 73.1284 11.4953 69.2736 11.7652M69.2736 1.92261C69.2736 1.92261 69.2736 7.61912 69.2736 11.7652M39.5345 25.6593L34.695 20.5355M39.5345 25.6593C37.7321 26.8415 35.9652 28.2035 34.2929 29.7626M34.695 20.5355L37.9116 17.8168L34.695 14.0524L23.0348 24.0908L26.1509 28.0643L30.2219 24.5091M34.695 20.5355L30.2219 24.5091M30.2219 24.5091L34.2929 29.7626M34.2929 29.7626C31.6161 32.2582 29.1814 35.2587 27.2304 38.8347M17.0036 38.8347H27.2304M27.2304 38.8347C25.8977 41.2774 24.7907 43.9886 23.9863 46.9909M8.25846 46.9909H23.9863M23.9863 46.9909C23.1409 50.1463 22.6298 53.6231 22.5423 57.4476M0.417969 57.4476H22.5423M22.5423 57.4476C22.529 58.032 22.5255 58.6246 22.5322 59.2253C22.3817 61.4994 22.4802 64.264 22.9538 67.2769M6.65016 67.2769H22.9538M22.9538 67.2769C23.3452 69.7671 23.9929 72.4269 24.9679 75.1194M17.0036 75.1194H24.9679" stroke="white" stroke-width="3" stroke-linejoin="round"/>
<path d="M46.7579 31.3059C44.581 32.493 41.926 34.4585 39.4108 37.1616M90.9864 59.3298C91.583 69.4063 88.0785 76.5164 83.0867 81.4026M90.9864 59.3298H86.1615M90.9864 59.3298C90.9353 53.2567 88.9389 44.3901 83.0867 37.7272M53.4927 29.11C55.9912 28.7306 58.3338 28.5438 60.5291 28.5269M43.5413 41.5534L39.4108 37.1616M39.4108 37.1616C34.7814 42.1368 30.6256 49.6108 30.7961 59.3298M35.9019 59.3298H30.7961M30.7961 59.3298C30.8566 62.7802 31.4624 66.5135 32.7858 70.5185C33.8655 73.5089 36.0651 77.6395 39.4108 81.4026M43.5413 77.3153L39.4108 81.4026M39.4108 81.4026C44.2352 86.829 51.4429 91.4913 61.1125 90.8697M60.5291 85.367L61.1125 90.8697M61.1125 90.8697C61.3851 90.8522 61.6598 90.8305 61.9363 90.8044C67.7146 90.3134 76.6407 87.7122 83.0867 81.4026M78.9241 77.3153L83.0867 81.4026M78.9241 41.5534L83.0867 37.7272M83.0867 37.7272C78.3857 32.375 71.1966 28.4447 60.5291 28.5269M60.5291 34.5474V28.5269M61.1125 46.7818V57.0293M61.1125 57.0293C57.0759 59.037 59.4306 61.0029 61.1125 61.7348C61.9278 61.3622 62.4694 60.9736 62.8013 60.5846M61.1125 57.0293C62.3745 57.6884 64.0342 59.1395 62.8013 60.5846M62.8013 60.5846L73.7976 72.1915" stroke="white" stroke-width="3"/>
</svg>
