<svg width="313" height="49" viewBox="0 0 313 49" fill="none" xmlns="http://www.w3.org/2000/svg">
<path d="M55.4711 32.6504H63.0395C62.7973 35.5365 61.99 38.1097 60.6176 40.3701C59.2452 42.6104 57.3178 44.3763 54.8354 45.668C52.3529 46.9596 49.3357 47.6055 45.7836 47.6055C43.059 47.6055 40.6068 47.1211 38.4272 46.1523C36.2475 45.1634 34.3806 43.7708 32.8266 41.9746C31.2725 40.1582 30.0818 37.9684 29.2543 35.4053C28.447 32.8421 28.0434 29.9762 28.0434 26.8076V23.1445C28.0434 19.9759 28.4571 17.11 29.2846 14.5469C30.1322 11.9837 31.3432 9.79395 32.9174 7.97754C34.4916 6.14095 36.3787 4.73828 38.5785 3.76953C40.7986 2.80078 43.2911 2.31641 46.0561 2.31641C49.5678 2.31641 52.5346 2.96224 54.9565 4.25391C57.3783 5.54557 59.2553 7.33171 60.5873 9.6123C61.9395 11.8929 62.767 14.5065 63.0697 17.4531H55.5014C55.2996 15.556 54.8555 13.9313 54.1693 12.5791C53.5033 11.2269 52.5144 10.1976 51.2025 9.49121C49.8907 8.76465 48.1752 8.40137 46.0561 8.40137C44.3204 8.40137 42.8067 8.72428 41.515 9.37012C40.2234 10.016 39.1436 10.9645 38.2758 12.2158C37.4079 13.4671 36.752 15.0111 36.308 16.8477C35.8842 18.6641 35.6723 20.7428 35.6723 23.084V26.8076C35.6723 29.0277 35.864 31.0459 36.2475 32.8623C36.6511 34.6585 37.2566 36.2025 38.0639 37.4941C38.8913 38.7858 39.9408 39.7848 41.2123 40.4912C42.4838 41.1976 44.0076 41.5508 45.7836 41.5508C47.9431 41.5508 49.6889 41.2077 51.0209 40.5215C52.3731 39.8353 53.3923 38.8363 54.0785 37.5244C54.7849 36.1924 55.2491 34.5677 55.4711 32.6504ZM76.6414 20.4805V47H69.3455V14.2441H76.3084L76.6414 20.4805ZM86.6619 14.0322L86.6014 20.8135C86.1574 20.7327 85.673 20.6722 85.1482 20.6318C84.6437 20.5915 84.1391 20.5713 83.6346 20.5713C82.3833 20.5713 81.2833 20.7529 80.3348 21.1162C79.3862 21.4593 78.589 21.9639 77.9432 22.6299C77.3175 23.2757 76.8331 24.0628 76.49 24.9912C76.1469 25.9196 75.9451 26.959 75.8846 28.1094L74.2195 28.2305C74.2195 26.1719 74.4214 24.2646 74.825 22.5088C75.2287 20.7529 75.8341 19.209 76.6414 17.877C77.4689 16.5449 78.4982 15.5055 79.7293 14.7588C80.9806 14.012 82.4236 13.6387 84.0584 13.6387C84.5024 13.6387 84.9767 13.679 85.4813 13.7598C86.006 13.8405 86.3995 13.9313 86.6619 14.0322ZM105.168 47.6055C102.746 47.6055 100.557 47.2119 98.5988 46.4248C96.6613 45.6175 95.0064 44.4974 93.634 43.0645C92.2818 41.6315 91.2424 39.9463 90.5158 38.0088C89.7893 36.0713 89.426 33.9824 89.426 31.7422V30.5312C89.426 27.9681 89.7994 25.6471 90.5461 23.5684C91.2928 21.4896 92.3322 19.7135 93.6643 18.2402C94.9963 16.7467 96.5705 15.6064 98.3869 14.8193C100.203 14.0322 102.171 13.6387 104.29 13.6387C106.631 13.6387 108.68 14.0322 110.436 14.8193C112.192 15.6064 113.645 16.7165 114.795 18.1494C115.966 19.5622 116.834 21.2474 117.399 23.2051C117.984 25.1628 118.277 27.3223 118.277 29.6836V32.8018H92.968V27.5645H111.071V26.9893C111.031 25.6774 110.769 24.4463 110.284 23.2959C109.82 22.1455 109.104 21.2171 108.135 20.5107C107.166 19.8044 105.875 19.4512 104.26 19.4512C103.049 19.4512 101.969 19.7135 101.021 20.2383C100.092 20.7428 99.3153 21.4795 98.6897 22.4482C98.064 23.417 97.5796 24.5876 97.2365 25.96C96.9136 27.3122 96.7522 28.8359 96.7522 30.5312V31.7422C96.7522 33.1751 96.9439 34.5072 97.3273 35.7383C97.731 36.9492 98.3163 38.0088 99.0832 38.917C99.8501 39.8252 100.779 40.5417 101.868 41.0664C102.958 41.571 104.199 41.8232 105.592 41.8232C107.348 41.8232 108.912 41.4701 110.284 40.7637C111.657 40.0573 112.848 39.0583 113.857 37.7666L117.701 41.4902C116.995 42.5195 116.077 43.5085 114.946 44.457C113.816 45.3854 112.434 46.1423 110.799 46.7275C109.184 47.3128 107.307 47.6055 105.168 47.6055ZM144.048 40.2188V0.5H151.375V47H144.745L144.048 40.2188ZM122.736 30.9854V30.3496C122.736 27.8672 123.029 25.6068 123.614 23.5684C124.199 21.5098 125.047 19.7438 126.157 18.2705C127.267 16.777 128.619 15.6367 130.213 14.8496C131.808 14.0423 133.604 13.6387 135.602 13.6387C137.58 13.6387 139.316 14.0221 140.809 14.7891C142.303 15.556 143.574 16.6559 144.624 18.0889C145.673 19.5016 146.511 21.1969 147.136 23.1748C147.762 25.1325 148.206 27.3122 148.468 29.7139V31.7422C148.206 34.0833 147.762 36.2227 147.136 38.1602C146.511 40.0977 145.673 41.7728 144.624 43.1855C143.574 44.5983 142.293 45.6882 140.779 46.4551C139.285 47.222 137.54 47.6055 135.542 47.6055C133.564 47.6055 131.778 47.1917 130.183 46.3643C128.609 45.5368 127.267 44.3763 126.157 42.8828C125.047 41.3893 124.199 39.6335 123.614 37.6152C123.029 35.5768 122.736 33.3669 122.736 30.9854ZM130.032 30.3496V30.9854C130.032 32.4788 130.163 33.8714 130.425 35.1631C130.708 36.4548 131.142 37.5951 131.727 38.584C132.312 39.5527 133.069 40.3197 133.998 40.8848C134.946 41.4297 136.076 41.7021 137.388 41.7021C139.043 41.7021 140.406 41.3389 141.475 40.6123C142.545 39.8857 143.382 38.9069 143.988 37.6758C144.614 36.4245 145.037 35.0319 145.259 33.498V28.0186C145.138 26.8278 144.886 25.7178 144.503 24.6885C144.139 23.6592 143.645 22.7611 143.019 21.9941C142.393 21.207 141.616 20.6016 140.688 20.1777C139.78 19.7337 138.7 19.5117 137.449 19.5117C136.117 19.5117 134.987 19.7943 134.058 20.3594C133.13 20.9245 132.363 21.7015 131.757 22.6904C131.172 23.6794 130.738 24.8298 130.456 26.1416C130.173 27.4535 130.032 28.8561 130.032 30.3496ZM166.914 14.2441V47H159.588V14.2441H166.914ZM159.104 5.64648C159.104 4.53646 159.467 3.61816 160.193 2.8916C160.94 2.14486 161.969 1.77148 163.281 1.77148C164.573 1.77148 165.592 2.14486 166.339 2.8916C167.086 3.61816 167.459 4.53646 167.459 5.64648C167.459 6.73633 167.086 7.64453 166.339 8.37109C165.592 9.09766 164.573 9.46094 163.281 9.46094C161.969 9.46094 160.94 9.09766 160.193 8.37109C159.467 7.64453 159.104 6.73633 159.104 5.64648ZM190.022 14.2441V19.5723H171.555V14.2441H190.022ZM176.883 6.22168H184.179V37.9482C184.179 38.9574 184.32 39.7344 184.603 40.2793C184.906 40.804 185.319 41.1572 185.844 41.3389C186.369 41.5205 186.984 41.6113 187.691 41.6113C188.195 41.6113 188.68 41.5811 189.144 41.5205C189.608 41.46 189.982 41.3994 190.264 41.3389L190.294 46.9092C189.689 47.0908 188.982 47.2523 188.175 47.3936C187.388 47.5348 186.48 47.6055 185.451 47.6055C183.775 47.6055 182.292 47.3128 181 46.7275C179.709 46.1221 178.7 45.1432 177.973 43.791C177.246 42.4388 176.883 40.6426 176.883 38.4023V6.22168Z" fill="#FF8C49"/>
<path d="M222.514 32.6504H230.083C229.841 35.5365 229.033 38.1097 227.661 40.3701C226.289 42.6104 224.361 44.3763 221.879 45.668C219.396 46.9596 216.379 47.6055 212.827 47.6055C210.102 47.6055 207.65 47.1211 205.471 46.1523C203.291 45.1634 201.424 43.7708 199.87 41.9746C198.316 40.1582 197.125 37.9684 196.298 35.4053C195.49 32.8421 195.087 29.9762 195.087 26.8076V23.1445C195.087 19.9759 195.5 17.11 196.328 14.5469C197.176 11.9837 198.387 9.79395 199.961 7.97754C201.535 6.14095 203.422 4.73828 205.622 3.76953C207.842 2.80078 210.334 2.31641 213.099 2.31641C216.611 2.31641 219.578 2.96224 222 4.25391C224.422 5.54557 226.299 7.33171 227.631 9.6123C228.983 11.8929 229.81 14.5065 230.113 17.4531H222.545C222.343 15.556 221.899 13.9313 221.213 12.5791C220.547 11.2269 219.558 10.1976 218.246 9.49121C216.934 8.76465 215.219 8.40137 213.099 8.40137C211.364 8.40137 209.85 8.72428 208.558 9.37012C207.267 10.016 206.187 10.9645 205.319 12.2158C204.451 13.4671 203.795 15.0111 203.351 16.8477C202.928 18.6641 202.716 20.7428 202.716 23.084V26.8076C202.716 29.0277 202.907 31.0459 203.291 32.8623C203.694 34.6585 204.3 36.2025 205.107 37.4941C205.935 38.7858 206.984 39.7848 208.256 40.4912C209.527 41.1976 211.051 41.5508 212.827 41.5508C214.986 41.5508 216.732 41.2077 218.064 40.5215C219.416 39.8353 220.436 38.8363 221.122 37.5244C221.828 36.1924 222.292 34.5677 222.514 32.6504ZM254.825 40.4307V24.8096C254.825 23.639 254.613 22.6299 254.19 21.7822C253.766 20.9346 253.12 20.2786 252.252 19.8145C251.404 19.3503 250.335 19.1182 249.043 19.1182C247.852 19.1182 246.823 19.32 245.955 19.7236C245.087 20.1273 244.411 20.6722 243.927 21.3584C243.443 22.0446 243.2 22.8216 243.2 23.6895H235.935C235.935 22.3978 236.248 21.1465 236.873 19.9355C237.499 18.7246 238.407 17.6449 239.598 16.6963C240.789 15.7477 242.211 15.001 243.866 14.4561C245.521 13.9111 247.378 13.6387 249.437 13.6387C251.899 13.6387 254.079 14.0524 255.976 14.8799C257.893 15.7074 259.397 16.9587 260.487 18.6338C261.597 20.2887 262.152 22.3675 262.152 24.8701V39.4316C262.152 40.9251 262.252 42.2673 262.454 43.458C262.676 44.6286 262.989 45.6478 263.393 46.5156V47H255.915C255.572 46.2129 255.3 45.2139 255.098 44.0029C254.916 42.7718 254.825 41.5811 254.825 40.4307ZM255.885 27.0801L255.946 31.5908H250.708C249.356 31.5908 248.165 31.722 247.136 31.9844C246.107 32.2266 245.249 32.5898 244.563 33.0742C243.877 33.5586 243.362 34.1439 243.019 34.8301C242.676 35.5163 242.504 36.2933 242.504 37.1611C242.504 38.029 242.706 38.8262 243.11 39.5527C243.513 40.2591 244.099 40.8141 244.865 41.2178C245.653 41.6214 246.601 41.8232 247.711 41.8232C249.205 41.8232 250.506 41.5205 251.616 40.915C252.747 40.2894 253.635 39.5326 254.28 38.6445C254.926 37.7363 255.269 36.8786 255.31 36.0713L257.671 39.3105C257.429 40.138 257.015 41.026 256.43 41.9746C255.845 42.9232 255.078 43.8314 254.129 44.6992C253.201 45.5469 252.081 46.2432 250.769 46.7881C249.477 47.333 247.984 47.6055 246.288 47.6055C244.149 47.6055 242.242 47.1816 240.567 46.334C238.891 45.4661 237.58 44.3057 236.631 42.8525C235.682 41.3792 235.208 39.7142 235.208 37.8574C235.208 36.1217 235.531 34.5879 236.177 33.2559C236.843 31.9036 237.812 30.7734 239.083 29.8652C240.375 28.957 241.949 28.2708 243.806 27.8066C245.663 27.3223 247.782 27.0801 250.163 27.0801H255.885ZM277.207 20.4805V47H269.911V14.2441H276.874L277.207 20.4805ZM287.227 14.0322L287.167 20.8135C286.723 20.7327 286.238 20.6722 285.714 20.6318C285.209 20.5915 284.704 20.5713 284.2 20.5713C282.949 20.5713 281.849 20.7529 280.9 21.1162C279.951 21.4593 279.154 21.9639 278.508 22.6299C277.883 23.2757 277.398 24.0628 277.055 24.9912C276.712 25.9196 276.51 26.959 276.45 28.1094L274.785 28.2305C274.785 26.1719 274.987 24.2646 275.39 22.5088C275.794 20.7529 276.399 19.209 277.207 17.877C278.034 16.5449 279.063 15.5055 280.295 14.7588C281.546 14.012 282.989 13.6387 284.624 13.6387C285.068 13.6387 285.542 13.679 286.047 13.7598C286.571 13.8405 286.965 13.9313 287.227 14.0322Z" fill="#0D1311"/>
</svg>
