<svg width="452" height="417" viewBox="0 0 452 417" fill="none" xmlns="http://www.w3.org/2000/svg">
<g opacity="0.7">
<path d="M117.351 135.932C117.351 135.932 114.648 126.08 114.462 121.384C114.275 116.687 116.046 109.561 113.157 106.343C110.268 103.124 107.223 92.7466 105.545 93.8303C103.867 94.9141 106.912 105.981 105.545 106.178C104.178 106.343 96.3489 102.073 94.8887 100.53C93.4596 98.9863 88.3644 85.6858 87.0284 86.8681C85.6614 88.0504 84.8847 99.4789 87.0284 106.375C88.3333 110.579 97.6227 120.431 99.4247 122.697C101.227 124.963 103.246 135.472 103.246 135.472L117.351 135.932Z" fill="#FC9490"/>
<path d="M215.186 416.852H370.652L250.759 149.627L220.654 244.044L206.58 332.845L215.186 416.852Z" fill="#47080B"/>
<path d="M336.6 159.545L311.715 152.714L287.543 143.65C287.543 143.65 260.825 147.656 250.821 149.627C239.916 151.761 225.5 150.415 213.818 162.27C202.137 174.093 195.084 168.477 144.194 182.041C137.732 183.781 124.404 128.97 124.404 128.97L109.18 132.221C109.18 132.221 113.499 202.435 117.445 210.481C121.359 218.527 216.304 219.052 216.304 221.745C216.304 224.438 244.731 415.538 244.731 415.538H381.96L336.6 159.545Z" fill="white"/>
<path d="M269.461 164.635C281.454 168.379 299.628 167.426 313.578 159.577C308.98 144.011 307.582 131.958 307.396 124.241C307.396 123.814 307.364 123.42 307.364 123.059C307.333 119.052 307.613 116.359 307.893 115.144L276.327 112.057C276.327 112.057 267.317 115.374 267.069 118.264C266.945 119.807 266.789 121.285 266.634 122.697C266.23 126.54 265.795 129.857 265.36 132.714C263.931 142.008 262.533 146.343 262.533 146.343C262.533 146.343 257.345 160.858 269.461 164.635Z" fill="#FC9490"/>
<path d="M265.36 132.648C288.848 139.873 303.947 127.426 307.364 124.208C307.861 123.748 308.11 123.453 308.11 123.453C307.861 123.288 307.613 123.157 307.333 122.993C298.758 118.297 278.284 119.348 266.634 122.599C266.23 126.474 265.795 129.791 265.36 132.648Z" fill="#F48484"/>
<path d="M317.461 113.863C306.804 135.998 278.408 126.31 266.478 120.99C263.122 119.479 261.072 118.33 261.072 118.33C257.468 115.998 257.095 108.773 258.462 99.9059C261.165 82.3689 270.672 58.2967 275.146 52.8123C281.887 44.5365 292.451 36.589 319.138 53.0422C345.857 69.4954 331.131 85.5217 317.461 113.863Z" fill="#FC9490"/>
<path d="M280.056 32.648C290.899 26.1127 299.971 25.4888 306.464 26.2113C325.664 28.3131 339.397 40.3656 339.49 40.4641C359.964 58.7236 360.772 79.6759 340.018 105.423C318.084 132.648 306.495 125.193 306.495 125.193C306.495 125.193 309.664 124.274 312.15 114.421C312.305 113.863 312.398 113.403 312.491 112.976C312.926 110.94 314.169 109.134 315.94 108.247C319.637 106.408 323.396 98.5265 321.594 95.4395C319.42 91.7285 314.324 93.8303 312.274 96.0306C310.596 97.5085 308.359 97.5085 306.775 95.6365C300.81 88.4444 308.297 80.1686 302.985 71.9912C297.672 63.8139 260.483 62.6316 260.483 40.4313C260.483 40.3985 269.99 38.7236 280.056 32.648Z" fill="#474747"/>
<path d="M293.911 76.6546C289.033 72.9764 282.758 74.4871 279.837 80.07C276.948 85.653 278.532 93.1406 283.379 96.8516C288.257 100.53 294.532 99.0191 297.453 93.4362C300.373 87.8204 298.789 80.3328 293.911 76.6546Z" fill="white"/>
<path d="M274.028 69.6596C271.884 64.9633 266.851 63.584 262.781 66.6054C258.711 69.6267 257.127 75.8993 259.271 80.6284C261.414 85.3246 266.447 86.7039 270.517 83.6825C274.556 80.6612 276.141 74.3558 274.028 69.6596Z" fill="white"/>
<path d="M281.174 81.7777C281.298 81.7777 281.422 81.7448 281.515 81.6791C281.795 81.4821 281.888 81.088 281.702 80.7924C281.578 80.5954 278.657 76.0305 273.904 75.6036C273.562 75.5708 273.282 75.8335 273.251 76.1947C273.22 76.556 273.469 76.8516 273.811 76.8844C277.974 77.2456 280.646 81.4493 280.677 81.4821C280.77 81.6791 280.956 81.7777 281.174 81.7777Z" fill="#293EB7"/>
<path d="M262.128 147.656C262.128 147.656 220.279 237.64 215.215 303.223C210.151 368.806 215.215 416.852 215.215 416.852C215.215 416.852 182.717 322.632 198.966 238.921C198.966 238.921 202.259 227.393 196.636 226.441C190.982 225.489 121.73 225.948 114.74 217.607C107.75 209.265 94.9495 141.876 94.9495 141.876C94.9495 141.876 100.821 125.949 124.34 128.97C124.34 128.97 142.701 178.724 145.187 178.953C147.672 179.183 200.457 164.865 206.329 160.366C212.17 155.834 226.027 147.426 262.128 147.656Z" fill="#E05200"/>
<path d="M302.58 265.029C302.704 274.717 303.046 284.865 303.698 295.341C305.997 332.188 311.931 373.403 324.327 415.538H451.77C451.77 415.538 435.987 374.98 416.911 330.875C413.556 323.157 410.138 315.308 406.658 307.59C392.553 276.195 377.92 246.31 367.202 231.203C338.774 191.137 311.683 152.714 311.683 152.714C311.683 152.714 301.71 198.691 302.58 265.029Z" fill="#E05200"/>
<path d="M337.533 325.85C337.533 325.85 363.692 336.819 416.881 330.875C413.526 323.157 410.108 315.308 406.629 307.59L337.533 325.85Z" fill="#47080B"/>
<path d="M175.324 199.118L312.49 339.906C315.193 342.664 319.512 342.599 322.121 339.742L330.417 330.71C333.026 327.853 332.964 323.288 330.261 320.53L193.095 179.742C190.392 176.983 186.073 177.049 183.464 179.906L175.168 188.937C172.59 191.794 172.652 196.359 175.324 199.118Z" fill="#47080B"/>
<path d="M175.324 199.118L190.517 214.717C202.509 204.832 221.896 209.298 221.896 209.298L193.126 179.774C190.423 177.016 186.105 177.082 183.495 179.939L175.2 188.97C172.59 191.794 172.652 196.359 175.324 199.118Z" fill="#47080B"/>
<path d="M252.311 278.132L312.49 339.906C315.193 342.664 319.512 342.599 322.121 339.742L330.417 330.71C333.026 327.853 332.964 323.288 330.261 320.53L270.082 258.756L252.311 278.132Z" fill="#47080B"/>
<path d="M29.2104 36.8188C29.7385 36.1949 30.2977 35.6037 30.857 34.9798C72.7992 -10.7017 141.895 -11.7854 185.111 32.5824C214.191 62.4346 224.164 105.226 214.812 143.945C210.276 162.796 201.142 180.694 187.379 195.637C145.406 241.318 76.341 242.402 33.0939 198.034C-9.56285 154.29 -11.1163 82.5988 29.2104 36.8188ZM43.6571 186.572C57.3582 200.628 74.073 209.397 91.5333 212.878C121.514 218.888 153.67 209.364 176.505 184.504C193.158 166.375 201.95 143.288 202.944 119.906C204.125 92.5167 194.618 64.7335 174.548 44.1095C151.029 19.9716 118.625 11.433 88.8615 18.3952C83.7352 19.5775 78.6711 21.2523 73.7312 23.3542C62.0185 28.3788 51.0824 35.9978 41.7309 46.1785C5.56738 85.4888 6.43732 148.346 43.6571 186.572Z" fill="#47080B"/>
<g opacity="0.5">
<path d="M43.6554 186.572C57.3565 200.628 74.0712 209.397 91.5316 212.911C121.512 218.921 153.668 209.397 176.503 184.536C212.636 145.16 211.766 82.3032 174.546 44.0766C151.027 19.9386 118.623 11.4329 88.8287 18.3623C71.4615 22.4017 54.9953 31.6628 41.698 46.1455C5.56563 85.4887 6.43556 148.346 43.6554 186.572Z" fill="#B3CFF9"/>
<path d="M43.6546 186.572C57.3557 200.628 74.0704 209.397 91.5308 212.911C108.867 208.871 125.333 199.61 138.63 185.127C174.763 145.784 173.893 82.9271 136.673 44.7006C122.972 30.6447 106.257 21.8763 88.7968 18.3951C71.4296 22.4345 54.9634 31.6956 41.6662 46.1784C5.56483 85.4887 6.43475 148.346 43.6546 186.572Z" fill="#D2E4FF"/>
<path d="M64.0991 49.1669C28.557 87.8533 29.023 149.265 65.1554 186.343C70.6235 191.958 76.5886 196.687 82.9265 200.53C72.1769 196.293 62.0486 189.659 53.2874 180.661C19.3608 145.817 18.553 88.5101 51.5165 52.648C63.3845 39.7088 78.0177 31.3344 93.4897 27.5577C82.7712 32.5495 72.7672 39.7416 64.0991 49.1669Z" fill="#F3F8FF"/>
</g>
<path d="M302.58 265.029C302.705 274.717 303.046 284.864 303.699 295.341C320.848 294.355 382.177 290.776 381.866 289.856C381.525 288.773 376.181 264.109 376.181 264.109C376.181 264.109 324.639 277.344 302.642 264.109L302.58 265.029Z" fill="#47080B"/>
<path d="M326.594 294.159C326.594 294.159 308.326 282.697 299.844 283.223C291.394 283.781 277.848 286.638 275.829 294.159C273.809 301.679 278.873 298.001 290.213 300.333C296.893 301.712 300.994 311.86 309.662 312.746C313.048 313.108 326.594 310.251 326.594 310.251V294.159Z" fill="#FC9490"/>
<path d="M311.682 152.747C311.682 152.747 358.471 158.592 370.65 170.743C391.248 191.302 445.462 269.101 440.087 303.223C436.546 325.85 337.531 325.85 337.531 325.85C337.531 325.85 325.321 317.475 320.816 309.889C311.682 294.52 314.851 283.223 314.851 283.223L376.087 261.219C376.087 261.219 346.23 230.612 323.208 229.035C306.369 227.886 311.682 152.747 311.682 152.747Z" fill="#E05200"/>
</g>
</svg>
