<svg width="102" height="26" viewBox="0 0 102 26" fill="none" xmlns="http://www.w3.org/2000/svg">
<g filter="url(#filter0_d_83_2151)">
<path d="M14.393 11.9082H17.0785C16.9926 12.9323 16.7061 13.8454 16.2191 14.6475C15.7322 15.4424 15.0482 16.069 14.1674 16.5273C13.2865 16.9857 12.2159 17.2148 10.9555 17.2148C9.98867 17.2148 9.11855 17.043 8.34512 16.6992C7.57168 16.3483 6.90924 15.8542 6.35781 15.2168C5.80638 14.5723 5.38385 13.7952 5.09023 12.8857C4.80377 11.9762 4.66055 10.9593 4.66055 9.83496V8.53516C4.66055 7.41081 4.80736 6.39388 5.10098 5.48438C5.40176 4.57487 5.83144 3.79785 6.39004 3.15332C6.94863 2.50163 7.61823 2.00391 8.39883 1.66016C9.18659 1.31641 10.071 1.14453 11.0521 1.14453C12.2982 1.14453 13.351 1.3737 14.2104 1.83203C15.0697 2.29036 15.7357 2.92415 16.2084 3.7334C16.6882 4.54264 16.9818 5.47005 17.0893 6.51562H14.4037C14.3321 5.84245 14.1745 5.26595 13.9311 4.78613C13.6947 4.30632 13.3438 3.94108 12.8783 3.69043C12.4128 3.43262 11.8041 3.30371 11.0521 3.30371C10.4363 3.30371 9.89915 3.41829 9.44082 3.64746C8.98249 3.87663 8.59935 4.21322 8.2914 4.65723C7.98346 5.10124 7.75071 5.64909 7.59316 6.30078C7.44277 6.94531 7.36758 7.68294 7.36758 8.51367V9.83496C7.36758 10.6227 7.43561 11.3389 7.57168 11.9834C7.71491 12.6208 7.92975 13.1686 8.21621 13.627C8.50983 14.0853 8.88223 14.4398 9.3334 14.6904C9.78457 14.9411 10.3253 15.0664 10.9555 15.0664C11.7217 15.0664 12.3412 14.9447 12.8139 14.7012C13.2937 14.4577 13.6553 14.1032 13.8988 13.6377C14.1495 13.165 14.3142 12.5885 14.393 11.9082ZM21.9695 7.58984V17H19.3807V5.37695H21.8514L21.9695 7.58984ZM25.5252 5.30176L25.5037 7.70801C25.3462 7.67936 25.1743 7.65788 24.9881 7.64355C24.809 7.62923 24.63 7.62207 24.451 7.62207C24.007 7.62207 23.6167 7.68652 23.2801 7.81543C22.9435 7.93717 22.6606 8.11621 22.4314 8.35254C22.2094 8.58171 22.0376 8.861 21.9158 9.19043C21.7941 9.51986 21.7225 9.88867 21.701 10.2969L21.1102 10.3398C21.1102 9.60938 21.1818 8.93262 21.325 8.30957C21.4682 7.68652 21.6831 7.13867 21.9695 6.66602C22.2631 6.19336 22.6284 5.82454 23.0652 5.55957C23.5092 5.2946 24.0213 5.16211 24.6014 5.16211C24.7589 5.16211 24.9272 5.17643 25.1062 5.20508C25.2924 5.23372 25.4321 5.26595 25.5252 5.30176ZM32.1564 17.2148C31.2971 17.2148 30.5201 17.0752 29.8254 16.7959C29.1379 16.5094 28.5507 16.112 28.0637 15.6035C27.5839 15.0951 27.215 14.4971 26.9572 13.8096C26.6994 13.1221 26.5705 12.3809 26.5705 11.5859V11.1562C26.5705 10.2467 26.703 9.42318 26.968 8.68555C27.2329 7.94792 27.6018 7.31771 28.0744 6.79492C28.5471 6.26497 29.1057 5.86035 29.7502 5.58105C30.3947 5.30176 31.093 5.16211 31.8449 5.16211C32.6757 5.16211 33.4025 5.30176 34.0256 5.58105C34.6486 5.86035 35.1643 6.25423 35.5725 6.7627C35.9878 7.264 36.2958 7.86198 36.4963 8.55664C36.704 9.2513 36.8078 10.0176 36.8078 10.8555V11.9619H27.8273V10.1035H34.2512V9.89941C34.2368 9.43392 34.1437 8.99707 33.9719 8.58887C33.8072 8.18066 33.5529 7.85124 33.2092 7.60059C32.8654 7.34993 32.4071 7.22461 31.8342 7.22461C31.4045 7.22461 31.0214 7.31771 30.6848 7.50391C30.3553 7.68294 30.0796 7.94434 29.8576 8.28809C29.6356 8.63184 29.4637 9.0472 29.342 9.53418C29.2274 10.014 29.1701 10.5547 29.1701 11.1562V11.5859C29.1701 12.0944 29.2382 12.5671 29.3742 13.0039C29.5174 13.4336 29.7251 13.8096 29.9973 14.1318C30.2694 14.4541 30.5988 14.7083 30.9855 14.8945C31.3723 15.0736 31.8127 15.1631 32.3068 15.1631C32.9299 15.1631 33.4849 15.0378 33.9719 14.7871C34.4589 14.5365 34.8814 14.182 35.2395 13.7236L36.6037 15.0449C36.3531 15.4102 36.0272 15.7611 35.6262 16.0977C35.2251 16.4271 34.7346 16.6956 34.1545 16.9033C33.5816 17.111 32.9156 17.2148 32.1564 17.2148ZM46.0172 14.5938V0.5H48.6168V17H46.2643L46.0172 14.5938ZM38.4547 11.3174V11.0918C38.4547 10.2109 38.5585 9.40885 38.7662 8.68555C38.9739 7.95508 39.2747 7.32845 39.6686 6.80566C40.0624 6.27572 40.5423 5.87109 41.108 5.5918C41.6738 5.30534 42.3111 5.16211 43.0201 5.16211C43.7219 5.16211 44.3378 5.29818 44.8678 5.57031C45.3977 5.84245 45.8489 6.23275 46.2213 6.74121C46.5937 7.24251 46.8909 7.84408 47.1129 8.5459C47.3349 9.24056 47.4924 10.014 47.5855 10.8662V11.5859C47.4924 12.4167 47.3349 13.1758 47.1129 13.8633C46.8909 14.5508 46.5937 15.1452 46.2213 15.6465C45.8489 16.1478 45.3941 16.5345 44.857 16.8066C44.3271 17.0788 43.7076 17.2148 42.9986 17.2148C42.2968 17.2148 41.663 17.068 41.0973 16.7744C40.5387 16.4808 40.0624 16.069 39.6686 15.5391C39.2747 15.0091 38.9739 14.3861 38.7662 13.6699C38.5585 12.9466 38.4547 12.1624 38.4547 11.3174ZM41.0436 11.0918V11.3174C41.0436 11.8473 41.0901 12.3415 41.1832 12.7998C41.2835 13.2581 41.4374 13.6628 41.6451 14.0137C41.8528 14.3574 42.1214 14.6296 42.4508 14.8301C42.7874 15.0234 43.1884 15.1201 43.6539 15.1201C44.2411 15.1201 44.7245 14.9912 45.1041 14.7334C45.4837 14.4756 45.7809 14.1283 45.9957 13.6914C46.2177 13.2474 46.3681 12.7533 46.4469 12.209V10.2646C46.4039 9.84212 46.3144 9.44824 46.1783 9.08301C46.0494 8.71777 45.874 8.39909 45.652 8.12695C45.4299 7.84766 45.1542 7.63281 44.8248 7.48242C44.5025 7.32487 44.1194 7.24609 43.6754 7.24609C43.2027 7.24609 42.8017 7.34635 42.4723 7.54688C42.1428 7.7474 41.8707 8.02311 41.6559 8.37402C41.4482 8.72493 41.2942 9.13314 41.1939 9.59863C41.0937 10.0641 41.0436 10.5618 41.0436 11.0918ZM54.1953 5.37695V17H51.5957V5.37695H54.1953ZM51.4238 2.32617C51.4238 1.93229 51.5527 1.60645 51.8105 1.34863C52.0755 1.08366 52.4408 0.951172 52.9062 0.951172C53.3646 0.951172 53.7262 1.08366 53.9912 1.34863C54.2562 1.60645 54.3887 1.93229 54.3887 2.32617C54.3887 2.71289 54.2562 3.03516 53.9912 3.29297C53.7262 3.55078 53.3646 3.67969 52.9062 3.67969C52.4408 3.67969 52.0755 3.55078 51.8105 3.29297C51.5527 3.03516 51.4238 2.71289 51.4238 2.32617ZM62.4594 5.37695V7.26758H55.9066V5.37695H62.4594ZM57.7973 2.53027H60.3861V13.7881C60.3861 14.1462 60.4363 14.4219 60.5365 14.6152C60.6439 14.8014 60.7908 14.9268 60.977 14.9912C61.1631 15.0557 61.3816 15.0879 61.6322 15.0879C61.8113 15.0879 61.9831 15.0771 62.1479 15.0557C62.3126 15.0342 62.4451 15.0127 62.5453 14.9912L62.5561 16.9678C62.3412 17.0322 62.0906 17.0895 61.8041 17.1396C61.5248 17.1898 61.2025 17.2148 60.8373 17.2148C60.2429 17.2148 59.7165 17.111 59.2582 16.9033C58.7999 16.6885 58.4418 16.3411 58.184 15.8613C57.9262 15.3815 57.7973 14.7441 57.7973 13.9492V2.53027Z" fill="white"/>
<path d="M74.0535 11.9082H76.7391C76.6531 12.9323 76.3667 13.8454 75.8797 14.6475C75.3927 15.4424 74.7088 16.069 73.8279 16.5273C72.9471 16.9857 71.8764 17.2148 70.616 17.2148C69.6492 17.2148 68.7791 17.043 68.0057 16.6992C67.2322 16.3483 66.5698 15.8542 66.0184 15.2168C65.4669 14.5723 65.0444 13.7952 64.7508 12.8857C64.4643 11.9762 64.3211 10.9593 64.3211 9.83496V8.53516C64.3211 7.41081 64.4679 6.39388 64.7615 5.48438C65.0623 4.57487 65.492 3.79785 66.0506 3.15332C66.6092 2.50163 67.2788 2.00391 68.0594 1.66016C68.8471 1.31641 69.7316 1.14453 70.7127 1.14453C71.9588 1.14453 73.0115 1.3737 73.8709 1.83203C74.7303 2.29036 75.3963 2.92415 75.8689 3.7334C76.3488 4.54264 76.6424 5.47005 76.7498 6.51562H74.0643C73.9926 5.84245 73.8351 5.26595 73.5916 4.78613C73.3553 4.30632 73.0044 3.94108 72.5389 3.69043C72.0734 3.43262 71.4646 3.30371 70.7127 3.30371C70.0968 3.30371 69.5597 3.41829 69.1014 3.64746C68.643 3.87663 68.2599 4.21322 67.952 4.65723C67.644 5.10124 67.4113 5.64909 67.2537 6.30078C67.1033 6.94531 67.0281 7.68294 67.0281 8.51367V9.83496C67.0281 10.6227 67.0962 11.3389 67.2322 11.9834C67.3755 12.6208 67.5903 13.1686 67.8768 13.627C68.1704 14.0853 68.5428 14.4398 68.9939 14.6904C69.4451 14.9411 69.9858 15.0664 70.616 15.0664C71.3823 15.0664 72.0018 14.9447 72.4744 14.7012C72.9542 14.4577 73.3159 14.1032 73.5594 13.6377C73.81 13.165 73.9747 12.5885 74.0535 11.9082ZM85.5832 14.6689V9.12598C85.5832 8.71061 85.508 8.35254 85.3576 8.05176C85.2072 7.75098 84.9781 7.51823 84.6701 7.35352C84.3693 7.1888 83.9898 7.10645 83.5314 7.10645C83.1089 7.10645 82.7437 7.17806 82.4357 7.32129C82.1278 7.46452 81.8879 7.65788 81.716 7.90137C81.5441 8.14486 81.4582 8.42057 81.4582 8.72852H78.8801C78.8801 8.27018 78.9911 7.82617 79.2131 7.39648C79.4351 6.9668 79.7574 6.58366 80.1799 6.24707C80.6024 5.91048 81.1073 5.64551 81.6945 5.45215C82.2818 5.25879 82.9406 5.16211 83.6711 5.16211C84.5448 5.16211 85.3182 5.30892 85.9914 5.60254C86.6717 5.89616 87.2053 6.34017 87.592 6.93457C87.9859 7.52181 88.1828 8.25944 88.1828 9.14746V14.3145C88.1828 14.8444 88.2186 15.3206 88.2902 15.7432C88.369 16.1585 88.48 16.5202 88.6232 16.8281V17H85.9699C85.8482 16.7207 85.7515 16.3662 85.6799 15.9365C85.6154 15.4997 85.5832 15.0771 85.5832 14.6689ZM85.9592 9.93164L85.9807 11.5322H84.1223C83.6424 11.5322 83.2199 11.5788 82.8547 11.6719C82.4894 11.7578 82.1851 11.8867 81.9416 12.0586C81.6981 12.2305 81.5155 12.4382 81.3937 12.6816C81.272 12.9251 81.2111 13.2008 81.2111 13.5088C81.2111 13.8167 81.2827 14.0996 81.426 14.3574C81.5692 14.6081 81.7769 14.805 82.049 14.9482C82.3283 15.0915 82.6649 15.1631 83.0588 15.1631C83.5887 15.1631 84.0506 15.0557 84.4445 14.8408C84.8456 14.6188 85.1607 14.3503 85.3898 14.0352C85.619 13.7129 85.7408 13.4085 85.7551 13.1221L86.593 14.2715C86.507 14.5651 86.3602 14.8802 86.1525 15.2168C85.9449 15.5534 85.6727 15.8757 85.3361 16.1836C85.0067 16.4844 84.6092 16.7314 84.1437 16.9248C83.6854 17.1182 83.1555 17.2148 82.5539 17.2148C81.7948 17.2148 81.118 17.0645 80.5236 16.7637C79.9292 16.4557 79.4637 16.0439 79.1271 15.5283C78.7906 15.0055 78.6223 14.4147 78.6223 13.7559C78.6223 13.14 78.7368 12.5957 78.966 12.123C79.2023 11.6432 79.5461 11.2422 79.9973 10.9199C80.4556 10.5977 81.0142 10.3542 81.673 10.1895C82.3319 10.0176 83.0838 9.93164 83.9289 9.93164H85.9592ZM93.5895 7.58984V17H91.0006V5.37695H93.4713L93.5895 7.58984ZM97.1451 5.30176L97.1236 7.70801C96.9661 7.67936 96.7942 7.65788 96.608 7.64355C96.429 7.62923 96.2499 7.62207 96.0709 7.62207C95.6269 7.62207 95.2366 7.68652 94.9 7.81543C94.5634 7.93717 94.2805 8.11621 94.0514 8.35254C93.8294 8.58171 93.6575 8.861 93.5357 9.19043C93.414 9.51986 93.3424 9.88867 93.3209 10.2969L92.7301 10.3398C92.7301 9.60938 92.8017 8.93262 92.9449 8.30957C93.0882 7.68652 93.303 7.13867 93.5895 6.66602C93.8831 6.19336 94.2483 5.82454 94.6852 5.55957C95.1292 5.2946 95.6412 5.16211 96.2213 5.16211C96.3788 5.16211 96.5471 5.17643 96.7262 5.20508C96.9124 5.23372 97.052 5.26595 97.1451 5.30176Z" fill="#0D1311"/>
</g>
<defs>
<filter id="filter0_d_83_2151" x="0.660645" y="0.5" width="100.484" height="24.7148" filterUnits="userSpaceOnUse" color-interpolation-filters="sRGB">
<feFlood flood-opacity="0" result="BackgroundImageFix"/>
<feColorMatrix in="SourceAlpha" type="matrix" values="0 0 0 0 0 0 0 0 0 0 0 0 0 0 0 0 0 0 127 0" result="hardAlpha"/>
<feOffset dy="4"/>
<feGaussianBlur stdDeviation="2"/>
<feComposite in2="hardAlpha" operator="out"/>
<feColorMatrix type="matrix" values="0 0 0 0 0 0 0 0 0 0 0 0 0 0 0 0 0 0 0.25 0"/>
<feBlend mode="normal" in2="BackgroundImageFix" result="effect1_dropShadow_83_2151"/>
<feBlend mode="normal" in="SourceGraphic" in2="effect1_dropShadow_83_2151" result="shape"/>
</filter>
</defs>
</svg>
