<svg width="60" height="60" viewBox="0 0 94 94" fill="none" xmlns="http://www.w3.org/2000/svg">
<path d="M57.5212 65.116C59.4894 63.8473 61.1964 62.5308 62.5777 61.291C63.4724 60.0947 64.2912 58.9085 65.0387 57.7338M57.5212 65.116C46.761 72.0518 28.1938 77.5583 12.349 61.291C4.53941 52.6521 -6.39405 31.004 12.349 13.5228C19.7092 4.82743 40.0591 -7.34613 62.5777 13.5228C69.1718 19.7756 78.2624 36.9543 65.0387 57.7338M57.5212 65.116L65.0387 72.8455M65.0387 57.7338L72.6453 65.116M65.0387 72.8455L82.467 90.765C86.4561 92.6283 93.8612 93.7802 91.5688 83.4812L72.6453 65.116M65.0387 72.8455L72.6453 65.116M37.4634 16.2331C42.6885 17.3623 53.577 21.4842 55.33 28.9374M17.4056 17.927C11.8434 23.4039 3.71914 38.4233 15.7201 54.6848C21.3947 60.7865 36.4858 70.3791 51.4533 59.9359C58.6449 55.3059 70.466 41.6078 60.218 23.8556C54.3749 13.8051 37.632 -1.45136 17.4056 17.927Z" stroke="white" stroke-width="3" stroke-linecap="round" stroke-linejoin="round"/>
</svg>
